<?xml version="1.0" encoding="UTF-8"?>
<svg version="1.1" viewBox="0 0 260 100" xml:space="preserve" xmlns="http://www.w3.org/2000/svg">
    <style>
        .st11{fill:none;}
        .st12{fill:#010202;}
        .st13{fill:#020605;}
        .st14{fill:#030A0A;}
        .st15{fill:#061212;}
        .st16{fill:#102323;}
        .st17{fill:#030807;}
    </style>
    <g transform="matrix(.64487 .53437 -.56501 .6124 118.97 -74.96)">
        <path class="st11" d="m264.35 84.89-186.92 151.87c-25.25 20.52-62.35 16.68-82.87-8.57l-15.52-19.1c-20.52-25.25-16.68-62.35 8.57-82.87l186.93-151.87c25.25-20.52 62.35-16.68 82.87 8.57l15.52 19.1c20.51 25.26 16.67 62.36-8.58 82.87z"/>
        
            <path class="st12" d="m234.68 37.16c7.95 0.49 14.37 3.85 21.28 5.32 2.16 0.46 2.71 2.75 2.2 4.63-2.77 10.2-6.9 19.64-15.67 26.28-2.55 1.93-4.4 2.13-4.93-1.9-0.38-2.88-1.54-5.65-2.02-8.53-0.86-5.12-3.66-6.75-8.48-5.18-27.73 9.06-55.17 19.51-77.12 39.07-25.57 22.78-50.07 46.95-67.92 76.79-8.98 15.02-20.62 28.39-28.17 44.3-4.45 9.38-8.38 19.01-12.73 28.45-0.77 1.67-1.16 5.12-3.72 4.08-2.43-0.99-2.27-3.97-1.4-6.64 4.8-14.73 10.86-29.01 18.81-42.2 15.29-25.36 29.78-51.61 51.46-72.18 13.51-12.81 24.99-27.82 39.91-38.93 23.37-17.4 48.86-31.12 77.42-38.18 5.62-1.39 7.92-3.93 6.75-9.48-0.93-4.34 0.37-6.5 4.33-5.7z"/>
            <path class="st13" d="m64.55 109.22c-6 0.42-11.19 1.1-16.36 1.04-5.27-0.06-7.7-3.45-6-8.37 2.17-6.26 4.76-12.39 7.46-18.45 0.81-1.82 2.41-3.39 3.93-4.75 2.02-1.8 4.72-2.64 6.59-0.23 1.78 2.3 2.01 5.47-1.07 7.04-5.94 3.02-7.22 8.8-9.29 14.2-1.1 2.87-0.32 3.77 2.81 3.3 3.08-0.46 6.26-0.68 9.36-0.48 7.09 0.46 10.88 6.2 8.24 12.79-2.32 5.81-5.55 11.21-9.41 16.17-1.86 2.39-4.73 3.59-7.11 1.83-2.74-2.02-0.44-4.48 0.94-6.49 2.25-3.26 4.79-6.33 6.81-9.72 1.35-2.27 1.99-4.95 3.1-7.88z"/>
            <path class="st14" d="m122.76 51.11c6.65 1.87 13.76 4.22 20.06 8.45 0.97 0.65 2.5 1.97 1.43 3.65-1.04 1.64-2.96 1.9-4.51 1.37-4.33-1.46-8.55-3.26-12.8-4.93-6.54-2.56-8.25-1.51-8.72 5.37-0.03 0.42 0.01 0.84-0.02 1.26-0.29 3.25-0.85 7.78-4.14 7.74-3.99-0.05-4.95-5.03-6.61-8.34-0.09-0.17-0.11-0.4-0.09-0.6 0.21-2.81 11.89-13.84 15.4-13.97z"/>
            <path class="st15" d="m107.08 85.69c-0.06 1.95-0.47 3.52-1.82 4.17-1.19 0.57-2.46-0.4-3.27-1.33-3.67-4.22-6.44-9.17-10.7-12.95-0.95-0.85-0.81-3.02 0.49-3.95 1.82-1.31 4.24-1.26 5.89 0.02 4.75 3.69 6.52 9.45 9.41 14.04z"/>
            <path class="st16" d="m86.18 52.74c-0.16-2.6 0.16-5.12 3.13-5.32 3.7-0.25 2.48 3.05 2.95 5.02 0.81 3.35-1.92 4.07-4 4.26-3.06 0.26-1.44-2.68-2.08-3.96z"/>
            <path class="st17" d="m92.28 114.38c-0.21-1.18-0.8-2.38-1.51-3.36-4.48-6.2-6.72-12.6-2.42-19.9 0.61-1.03 0.71-2.38 0.93-3.61 0.54-3.03-0.78-5.48-3.21-6.89-2.45-1.42-5.18-1.19-7.56 0.72-3.65 2.93-5.49 6.69-5.45 11.39 0.07 1.24-0.37 3.01 0.29 3.64 6.18 5.85 8.6 14.07 13.41 20.74 0.72 0.99 2.12 2.45 3.67 1.6 1.53-0.84 2.15-2.6 1.85-4.33zm-9.77-22.06c-2.05-0.31-3.59-1.49-3.54-3.59 0.04-1.91 1.04-3.78 3.38-3.77 2.16 0.01 3.43 1.25 3.54 3.53 0.1 2.36-1.28 3.35-3.38 3.83z"/>
        
    </g>
    
    </svg>
