<svg version="1.1" id="Layer_1" xmlns="http://www.w3.org/2000/svg" xmlns:xlink="http://www.w3.org/1999/xlink" x="0px" y="0px" xml:space="preserve" style="enable-background:new 0 0 709.76 709.76;" viewBox="0 0 280 280">
    <style>
        .st11{fill:none;}
        .st12{fill:#010202;}
        .st13{fill:#020605;}
        .st14{fill:#030A0A;}
        .st15{fill:#061212;}
        .st16{fill:#102323;}
        .st17{fill:#030807;}
    </style>
    <g>
        <path d="M264.35,84.89L77.43,236.76c-25.25,20.52-62.35,16.68-82.87-8.57l-15.52-19.1
            c-20.52-25.25-16.68-62.35,8.57-82.87L174.54-25.65c25.25-20.52,62.35-16.68,82.87,8.57l15.52,19.1
            C293.44,27.28,289.6,64.38,264.35,84.89z" class="st11"></path>
        <g>
            <path class="st12" d="M234.68,37.16c7.95,0.49,14.37,3.85,21.28,5.32c2.16,0.46,2.71,2.75,2.2,4.63
                c-2.77,10.2-6.9,19.64-15.67,26.28c-2.55,1.93-4.4,2.13-4.93-1.9c-0.38-2.88-1.54-5.65-2.02-8.53c-0.86-5.12-3.66-6.75-8.48-5.18
                c-27.73,9.06-55.17,19.51-77.12,39.07c-25.57,22.78-50.07,46.95-67.92,76.79c-8.98,15.02-20.62,28.39-28.17,44.3
                c-4.45,9.38-8.38,19.01-12.73,28.45c-0.77,1.67-1.16,5.12-3.72,4.08c-2.43-0.99-2.27-3.97-1.4-6.64
                c4.8-14.73,10.86-29.01,18.81-42.2c15.29-25.36,29.78-51.61,51.46-72.18c13.51-12.81,24.99-27.82,39.91-38.93
                c23.37-17.4,48.86-31.12,77.42-38.18c5.62-1.39,7.92-3.93,6.75-9.48C229.42,38.52,230.72,36.36,234.68,37.16z"></path>
            <path class="st13" d="M64.55,109.22c-6,0.42-11.19,1.1-16.36,1.04c-5.27-0.06-7.7-3.45-6-8.37c2.17-6.26,4.76-12.39,7.46-18.45
                c0.81-1.82,2.41-3.39,3.93-4.75c2.02-1.8,4.72-2.64,6.59-0.23c1.78,2.3,2.01,5.47-1.07,7.04c-5.94,3.02-7.22,8.8-9.29,14.2
                c-1.1,2.87-0.32,3.77,2.81,3.3c3.08-0.46,6.26-0.68,9.36-0.48c7.09,0.46,10.88,6.2,8.24,12.79c-2.32,5.81-5.55,11.21-9.41,16.17
                c-1.86,2.39-4.73,3.59-7.11,1.83c-2.74-2.02-0.44-4.48,0.94-6.49c2.25-3.26,4.79-6.33,6.81-9.72
                C62.8,114.83,63.44,112.15,64.55,109.22z"></path>
            <path class="st14" d="M122.76,51.11c6.65,1.87,13.76,4.22,20.06,8.45c0.97,0.65,2.5,1.97,1.43,3.65c-1.04,1.64-2.96,1.9-4.51,1.37
                c-4.33-1.46-8.55-3.26-12.8-4.93c-6.54-2.56-8.25-1.51-8.72,5.37c-0.03,0.42,0.01,0.84-0.02,1.26c-0.29,3.25-0.85,7.78-4.14,7.74
                c-3.99-0.05-4.95-5.03-6.61-8.34c-0.09-0.17-0.11-0.4-0.09-0.6C107.57,62.27,119.25,51.24,122.76,51.11z"></path>
            <path class="st15" d="M107.08,85.69c-0.06,1.95-0.47,3.52-1.82,4.17c-1.19,0.57-2.46-0.4-3.27-1.33
                c-3.67-4.22-6.44-9.17-10.7-12.95c-0.95-0.85-0.81-3.02,0.49-3.95c1.82-1.31,4.24-1.26,5.89,0.02
                C102.42,75.34,104.19,81.1,107.08,85.69z"></path>
            <path class="st16" d="M86.18,52.74c-0.16-2.6,0.16-5.12,3.13-5.32c3.7-0.25,2.48,3.05,2.95,5.02c0.81,3.35-1.92,4.07-4,4.26
                C85.2,56.96,86.82,54.02,86.18,52.74z"></path>
            <path class="st17" d="M92.28,114.38c-0.21-1.18-0.8-2.38-1.51-3.36c-4.48-6.2-6.72-12.6-2.42-19.9c0.61-1.03,0.71-2.38,0.93-3.61
                c0.54-3.03-0.78-5.48-3.21-6.89c-2.45-1.42-5.18-1.19-7.56,0.72c-3.65,2.93-5.49,6.69-5.45,11.39c0.07,1.24-0.37,3.01,0.29,3.64
                c6.18,5.85,8.6,14.07,13.41,20.74c0.72,0.99,2.12,2.45,3.67,1.6C91.96,117.87,92.58,116.11,92.28,114.38z M82.51,92.32
                c-2.05-0.31-3.59-1.49-3.54-3.59c0.04-1.91,1.04-3.78,3.38-3.77c2.16,0.01,3.43,1.25,3.54,3.53
                C85.99,90.85,84.61,91.84,82.51,92.32z"></path>
        </g>
    </g>
    
    </svg>